<mxfile host="app.diagrams.net" modified="2022-02-18T05:02:03.073Z" agent="5.0 (Windows NT 10.0; Win64; x64) AppleWebKit/537.36 (KHTML, like Gecko) Chrome/98.0.4758.80 Safari/537.36 Edg/98.0.1108.50" etag="bpXOfnxR3ZrCmhzEKkuo" version="16.6.1" type="github">
  <diagram id="Sp5s2glZA3ZFNez7v4EB" name="Page-1">
    <mxGraphModel dx="1483" dy="881" grid="1" gridSize="10" guides="1" tooltips="1" connect="1" arrows="1" fold="1" page="1" pageScale="1" pageWidth="1169" pageHeight="1654" math="0" shadow="0">
      <root>
        <mxCell id="0" />
        <mxCell id="1" parent="0" />
        <mxCell id="vrpzgk-Dyho_CdqEeMss-35" value="" style="group" vertex="1" connectable="0" parent="1">
          <mxGeometry x="40" y="170" width="1120" height="70" as="geometry" />
        </mxCell>
        <mxCell id="vrpzgk-Dyho_CdqEeMss-1" value="&lt;font face=&quot;Comic Sans MS&quot;&gt;&lt;span style=&quot;font-size: 16px&quot;&gt;&lt;b&gt;class&lt;/b&gt;&lt;/span&gt;&lt;/font&gt;" style="rounded=0;whiteSpace=wrap;html=1;fillColor=#fff2cc;strokeColor=#d6b656;" vertex="1" parent="vrpzgk-Dyho_CdqEeMss-35">
          <mxGeometry y="30" width="80" height="40" as="geometry" />
        </mxCell>
        <mxCell id="vrpzgk-Dyho_CdqEeMss-15" value="&lt;font face=&quot;Comic Sans MS&quot; size=&quot;1&quot;&gt;&lt;b style=&quot;font-size: 16px&quot;&gt;alpha&lt;/b&gt;&lt;/font&gt;" style="rounded=0;whiteSpace=wrap;html=1;fillColor=#ffe6cc;strokeColor=#d79b00;" vertex="1" parent="vrpzgk-Dyho_CdqEeMss-35">
          <mxGeometry x="80" y="30" width="80" height="40" as="geometry" />
        </mxCell>
        <mxCell id="vrpzgk-Dyho_CdqEeMss-16" value="&lt;font face=&quot;Comic Sans MS&quot;&gt;&lt;span style=&quot;font-size: 16px&quot;&gt;&lt;b&gt;2D Box Coordinate&lt;/b&gt;&lt;/span&gt;&lt;/font&gt;" style="rounded=0;whiteSpace=wrap;html=1;fillColor=#f8cecc;strokeColor=#b85450;" vertex="1" parent="vrpzgk-Dyho_CdqEeMss-35">
          <mxGeometry x="160" y="30" width="320" height="40" as="geometry" />
        </mxCell>
        <mxCell id="vrpzgk-Dyho_CdqEeMss-20" value="&lt;font face=&quot;Comic Sans MS&quot; size=&quot;1&quot;&gt;&lt;b style=&quot;font-size: 16px&quot;&gt;3D Box Dimension&lt;/b&gt;&lt;/font&gt;" style="rounded=0;whiteSpace=wrap;html=1;fillColor=#d5e8d4;strokeColor=#82b366;" vertex="1" parent="vrpzgk-Dyho_CdqEeMss-35">
          <mxGeometry x="480" y="30" width="240" height="40" as="geometry" />
        </mxCell>
        <mxCell id="vrpzgk-Dyho_CdqEeMss-23" value="&lt;font face=&quot;Comic Sans MS&quot; size=&quot;1&quot;&gt;&lt;b style=&quot;font-size: 16px&quot;&gt;3D Box Center Coordinate&lt;/b&gt;&lt;/font&gt;" style="rounded=0;whiteSpace=wrap;html=1;fillColor=#e1d5e7;strokeColor=#9673a6;" vertex="1" parent="vrpzgk-Dyho_CdqEeMss-35">
          <mxGeometry x="720" y="30" width="240" height="40" as="geometry" />
        </mxCell>
        <mxCell id="vrpzgk-Dyho_CdqEeMss-26" value="&lt;font face=&quot;Comic Sans MS&quot; size=&quot;1&quot;&gt;&lt;b style=&quot;font-size: 16px&quot;&gt;???&lt;/b&gt;&lt;/font&gt;" style="rounded=0;whiteSpace=wrap;html=1;fillColor=#f5f5f5;fontColor=#333333;strokeColor=#666666;" vertex="1" parent="vrpzgk-Dyho_CdqEeMss-35">
          <mxGeometry x="960" y="30" width="80" height="40" as="geometry" />
        </mxCell>
        <mxCell id="vrpzgk-Dyho_CdqEeMss-27" value="&lt;font face=&quot;Comic Sans MS&quot; size=&quot;1&quot;&gt;&lt;b style=&quot;font-size: 16px&quot;&gt;score&lt;/b&gt;&lt;/font&gt;" style="rounded=0;whiteSpace=wrap;html=1;fillColor=#dae8fc;strokeColor=#6c8ebf;" vertex="1" parent="vrpzgk-Dyho_CdqEeMss-35">
          <mxGeometry x="1040" y="30" width="80" height="40" as="geometry" />
        </mxCell>
        <mxCell id="vrpzgk-Dyho_CdqEeMss-28" value="1" style="text;html=1;strokeColor=#666666;fillColor=#f5f5f5;align=center;verticalAlign=middle;whiteSpace=wrap;rounded=0;fontFamily=Comic Sans MS;fontSize=16;fontColor=#333333;" vertex="1" parent="vrpzgk-Dyho_CdqEeMss-35">
          <mxGeometry width="30" height="30" as="geometry" />
        </mxCell>
        <mxCell id="vrpzgk-Dyho_CdqEeMss-29" value="1" style="text;html=1;strokeColor=#666666;fillColor=#f5f5f5;align=center;verticalAlign=middle;whiteSpace=wrap;rounded=0;fontFamily=Comic Sans MS;fontSize=16;fontColor=#333333;" vertex="1" parent="vrpzgk-Dyho_CdqEeMss-35">
          <mxGeometry x="80" width="30" height="30" as="geometry" />
        </mxCell>
        <mxCell id="vrpzgk-Dyho_CdqEeMss-30" value="3" style="text;html=1;strokeColor=#666666;fillColor=#f5f5f5;align=center;verticalAlign=middle;whiteSpace=wrap;rounded=0;fontFamily=Comic Sans MS;fontSize=16;fontColor=#333333;" vertex="1" parent="vrpzgk-Dyho_CdqEeMss-35">
          <mxGeometry x="480" width="30" height="30" as="geometry" />
        </mxCell>
        <mxCell id="vrpzgk-Dyho_CdqEeMss-31" value="4" style="text;html=1;strokeColor=#666666;fillColor=#f5f5f5;align=center;verticalAlign=middle;whiteSpace=wrap;rounded=0;fontFamily=Comic Sans MS;fontSize=16;fontColor=#333333;" vertex="1" parent="vrpzgk-Dyho_CdqEeMss-35">
          <mxGeometry x="160" width="30" height="30" as="geometry" />
        </mxCell>
        <mxCell id="vrpzgk-Dyho_CdqEeMss-32" value="3" style="text;html=1;strokeColor=#666666;fillColor=#f5f5f5;align=center;verticalAlign=middle;whiteSpace=wrap;rounded=0;fontFamily=Comic Sans MS;fontSize=16;fontColor=#333333;" vertex="1" parent="vrpzgk-Dyho_CdqEeMss-35">
          <mxGeometry x="720" width="30" height="30" as="geometry" />
        </mxCell>
        <mxCell id="vrpzgk-Dyho_CdqEeMss-33" value="1" style="text;html=1;strokeColor=#666666;fillColor=#f5f5f5;align=center;verticalAlign=middle;whiteSpace=wrap;rounded=0;fontFamily=Comic Sans MS;fontSize=16;fontColor=#333333;" vertex="1" parent="vrpzgk-Dyho_CdqEeMss-35">
          <mxGeometry x="960" width="30" height="30" as="geometry" />
        </mxCell>
        <mxCell id="vrpzgk-Dyho_CdqEeMss-34" value="1" style="text;html=1;strokeColor=#666666;fillColor=#f5f5f5;align=center;verticalAlign=middle;whiteSpace=wrap;rounded=0;fontFamily=Comic Sans MS;fontSize=16;fontColor=#333333;" vertex="1" parent="vrpzgk-Dyho_CdqEeMss-35">
          <mxGeometry x="1040" width="30" height="30" as="geometry" />
        </mxCell>
      </root>
    </mxGraphModel>
  </diagram>
</mxfile>
